<svg xmlns="http://www.w3.org/2000/svg" width="40" height="40" fill="none"><path fill="#4D1299" fill-rule="evenodd" d="M20 8.333c-3.169 0-3.566.014-4.81.07-1.242.057-2.09.255-2.833.543a5.714 5.714 0 0 0-2.066 1.346 5.722 5.722 0 0 0-1.346 2.066c-.287.742-.485 1.59-.542 2.833-.056 1.244-.07 1.64-.07 4.809 0 3.17.013 3.565.07 4.81.057 1.242.254 2.09.543 2.832a5.713 5.713 0 0 0 1.345 2.067 5.724 5.724 0 0 0 2.066 1.346c.742.287 1.59.485 2.833.542 1.244.056 1.641.07 4.81.07 3.168 0 3.565-.014 4.81-.07 1.242-.057 2.09-.255 2.832-.543a5.714 5.714 0 0 0 2.067-1.346 5.723 5.723 0 0 0 1.345-2.066c.288-.741.486-1.59.542-2.832.057-1.245.07-1.641.07-4.81 0-3.169-.013-3.565-.07-4.81-.056-1.242-.254-2.09-.543-2.832a5.719 5.719 0 0 0-1.345-2.067 5.723 5.723 0 0 0-2.066-1.346c-.742-.287-1.591-.485-2.833-.542-1.244-.056-1.64-.07-4.81-.07Zm0 2.103c3.115 0 3.484.011 4.715.067 1.137.053 1.754.242 2.166.402.544.211.933.465 1.341.872.409.409.662.798.872 1.342.16.412.35 1.029.402 2.166.056 1.23.068 1.6.068 4.715 0 3.115-.012 3.485-.068 4.715-.052 1.137-.24 1.755-.402 2.166a3.613 3.613 0 0 1-.872 1.342 3.61 3.61 0 0 1-1.341.872c-.412.16-1.03.35-2.166.402-1.23.056-1.6.067-4.715.067-3.116 0-3.485-.011-4.715-.067-1.137-.052-1.755-.241-2.166-.402a3.615 3.615 0 0 1-1.342-.872 3.616 3.616 0 0 1-.872-1.342c-.16-.411-.35-1.029-.402-2.166-.056-1.23-.068-1.6-.068-4.715 0-3.115.012-3.484.068-4.715.052-1.137.241-1.755.402-2.166.21-.544.465-.933.872-1.342a3.61 3.61 0 0 1 1.342-.871c.411-.16 1.029-.35 2.166-.403 1.23-.056 1.6-.067 4.715-.067Z" clip-rule="evenodd"/><path fill="#4D1299" fill-rule="evenodd" d="M19.987 23.758c-.496 0-.987-.099-1.446-.292a3.776 3.776 0 0 1-1.226-.832c-.35-.357-.629-.78-.819-1.245a3.894 3.894 0 0 1 0-2.939c.19-.466.469-.889.82-1.245.35-.357.767-.64 1.225-.832.459-.194.95-.293 1.446-.293 1.002 0 1.963.405 2.672 1.125a3.87 3.87 0 0 1 1.106 2.714 3.87 3.87 0 0 1-1.106 2.715 3.748 3.748 0 0 1-2.672 1.124Zm0-9.753a5.773 5.773 0 0 0-4.115 1.732 5.963 5.963 0 0 0-1.705 4.182c0 1.569.613 3.073 1.705 4.182a5.773 5.773 0 0 0 4.115 1.732 5.774 5.774 0 0 0 4.116-1.732 5.963 5.963 0 0 0 1.704-4.182 5.963 5.963 0 0 0-1.704-4.181 5.774 5.774 0 0 0-4.116-1.733Zm7.513-.107c0 .37-.145.726-.403.989-.258.262-.608.409-.972.409-.365 0-.715-.147-.973-.41a1.41 1.41 0 0 1 0-1.976c.258-.263.608-.41.973-.41.364 0 .714.147.972.41.258.262.403.617.403.988" clip-rule="evenodd"/></svg>