<svg xmlns="http://www.w3.org/2000/svg" width="40" height="40" fill="none"><path fill="#4D1299" fill-rule="evenodd" d="M20.66 31.127h-.005c-1.99 0-3.947-.5-5.684-1.447l-6.304 1.653 1.687-6.162a11.871 11.871 0 0 1-1.587-5.946c.002-6.557 5.337-11.892 11.892-11.892a11.816 11.816 0 0 1 8.413 3.488 11.82 11.82 0 0 1 3.48 8.414c-.002 6.555-5.335 11.89-11.892 11.892Zm-5.396-3.6.36.214a9.87 9.87 0 0 0 5.032 1.378h.004c5.448 0 9.882-4.435 9.884-9.885a9.825 9.825 0 0 0-2.892-6.993 9.817 9.817 0 0 0-6.989-2.899c-5.452 0-9.886 4.434-9.888 9.884-.001 1.868.521 3.687 1.51 5.26l.236.374-.999 3.648 3.742-.981Zm10.98-5.732c.207.1.347.168.407.268.074.123.074.719-.173 1.413-.248.694-1.435 1.327-2.006 1.413-.512.076-1.16.108-1.872-.118-.431-.137-.985-.32-1.694-.626-2.785-1.203-4.668-3.903-5.024-4.413l-.052-.074-.002-.003c-.158-.21-1.211-1.616-1.211-3.071 0-1.369.672-2.086.981-2.416l.059-.063c.272-.298.594-.372.792-.372.198 0 .396.002.57.01.02.002.043.002.066.002.173-.002.39-.003.602.509l.328.796c.256.623.539 1.31.588 1.41.075.149.124.322.025.52l-.042.085c-.074.152-.129.264-.255.412-.05.058-.101.12-.152.182-.103.125-.205.25-.294.338-.149.148-.303.31-.13.607s.77 1.27 1.653 2.058a7.674 7.674 0 0 0 2.193 1.387c.082.035.148.064.197.088.297.149.47.124.644-.074.173-.199.742-.868.94-1.166.198-.297.397-.247.669-.148s1.733.818 2.03.966l.163.08Z" clip-rule="evenodd"/></svg>