<svg xmlns="http://www.w3.org/2000/svg" width="54" height="68" fill="none"><mask id="a" width="41" height="42" x="6" y="0" maskUnits="userSpaceOnUse" style="mask-type:luminance"><path fill="#fff" d="M6.12 0H46.3v41.916H6.12V0Z"/></mask><g mask="url(#a)"><path fill="#4D1299" d="M41.752 37.51V17.234L26.21 5.065 10.668 17.234V37.51h31.084Zm4.44 2.203a2.198 2.198 0 0 1-.169.843 2.202 2.202 0 0 1-1.618 1.317c-.143.03-.288.044-.432.044H8.447a2.203 2.203 0 0 1-1.233-.371 2.203 2.203 0 0 1-.986-1.832v-23.55a2.194 2.194 0 0 1 .843-1.73L24.833.53A2.215 2.215 0 0 1 26.21.054a2.213 2.213 0 0 1 1.376.475L45.35 14.434c.267.208.475.465.622.768.149.305.222.626.221.963v23.548ZM15.11 22.085h4.44a6.531 6.531 0 0 0 .287 1.918 6.51 6.51 0 0 0 .836 1.755 6.69 6.69 0 0 0 1.312 1.437 6.625 6.625 0 0 0 2.292 1.216 6.654 6.654 0 0 0 1.934.284 6.673 6.673 0 0 0 1.934-.284 6.607 6.607 0 0 0 1.766-.83 6.435 6.435 0 0 0 1.01-.823 6.482 6.482 0 0 0 .829-1 6.55 6.55 0 0 0 .615-1.144 6.51 6.51 0 0 0 .38-1.24 6.863 6.863 0 0 0 .127-1.29h4.441a11.037 11.037 0 0 1-1.87 6.12 11.118 11.118 0 0 1-3.999 3.598 10.997 10.997 0 0 1-2.01.826 11.269 11.269 0 0 1-3.223.474 11.266 11.266 0 0 1-3.223-.474 11.166 11.166 0 0 1-2.944-1.383 10.834 10.834 0 0 1-1.683-1.37 10.908 10.908 0 0 1-1.94-2.597 10.912 10.912 0 0 1-1.311-5.193Z"/></g><mask id="b" width="7" height="7" x="17" y="13" maskUnits="userSpaceOnUse" style="mask-type:luminance"><path fill="#fff" d="M17.786 13.953h5.979v5.862h-5.979v-5.863Z"/></mask><g mask="url(#b)"><mask id="c" width="7" height="7" x="17" y="13" maskUnits="userSpaceOnUse" style="mask-type:luminance"><path fill="#fff" d="M20.775 13.953a2.986 2.986 0 0 0-2.989 2.984 2.986 2.986 0 0 0 2.989 2.984 2.987 2.987 0 0 0 2.988-2.984 2.987 2.987 0 0 0-2.988-2.985Z"/></mask><g mask="url(#c)"><path fill="#D854A5" d="M17.786 13.953h5.86v5.836h-5.86v-5.837Z"/></g></g><path fill="#4D1299" d="M3.688 52.87c-.744 0-1.394-.158-1.951-.476A3.208 3.208 0 0 1 .45 51.023c-.3-.598-.45-1.298-.45-2.099 0-.796.15-1.49.45-2.081.3-.594.73-1.052 1.287-1.372.557-.32 1.207-.48 1.951-.48.483 0 .934.071 1.356.213.425.143.802.347 1.132.614a.63.63 0 0 1 .198.235.71.71 0 0 1 .054.288c0 .16-.046.296-.134.405a.392.392 0 0 1-.317.16.82.82 0 0 1-.45-.149 3.096 3.096 0 0 0-.874-.486 2.744 2.744 0 0 0-.895-.138c-.761 0-1.338.237-1.726.71-.39.473-.585 1.167-.585 2.081 0 .927.195 1.626.585 2.099.388.47.965.704 1.726.704.31 0 .6-.045.868-.139.268-.096.569-.256.9-.48.076-.045.148-.083.22-.112a.653.653 0 0 1 .231-.043.39.39 0 0 1 .317.166c.088.106.134.24.134.4a.77.77 0 0 1-.054.294.58.58 0 0 1-.198.23 3.51 3.51 0 0 1-1.132.618 4.314 4.314 0 0 1-1.356.209ZM11.042 52.87c-.75 0-1.402-.158-1.952-.476a3.225 3.225 0 0 1-1.275-1.371c-.3-.598-.45-1.298-.45-2.099 0-.796.147-1.49.444-2.081a3.184 3.184 0 0 1 1.276-1.372c.554-.32 1.206-.48 1.957-.48.753 0 1.406.16 1.956.48.55.32.972.778 1.266 1.372.296.59.445 1.285.445 2.081 0 .801-.15 1.5-.45 2.099a3.205 3.205 0 0 1-1.271 1.371c-.551.318-1.2.476-1.946.476Zm0-1.121c.707 0 1.26-.243 1.656-.732.4-.487.6-1.185.6-2.093 0-.907-.2-1.602-.6-2.087-.396-.483-.949-.726-1.656-.726-.716 0-1.27.243-1.667.726-.397.485-.595 1.18-.595 2.087 0 .908.198 1.606.595 2.093.396.489.951.731 1.667.731ZM22.927 45.033a.65.65 0 0 1 .494.192.698.698 0 0 1 .187.507v6.454c0 .203-.059.363-.177.48a.621.621 0 0 1-.456.171.598.598 0 0 1-.45-.17c-.111-.118-.166-.278-.166-.48V47.69l-1.86 3.513c-.086.16-.181.28-.284.358a.601.601 0 0 1-.36.112.62.62 0 0 1-.364-.107 1.058 1.058 0 0 1-.284-.363l-1.871-3.454v4.436a.663.663 0 0 1-.172.475.59.59 0 0 1-.45.176.598.598 0 0 1-.45-.17c-.111-.118-.166-.278-.166-.48v-6.455c0-.21.06-.379.182-.507a.64.64 0 0 1 .488-.192c.281 0 .504.157.665.47l2.433 4.612 2.418-4.612c.16-.313.375-.47.643-.47ZM25.927 52.838a.689.689 0 0 1-.51-.193.7.7 0 0 1-.192-.512v-6.38c0-.209.06-.373.182-.49.12-.118.287-.176.498-.176h3.844c.442 0 .665.19.665.57 0 .372-.223.556-.665.556h-3.13v2.093h2.91c.443 0 .665.189.665.565 0 .371-.222.555-.665.555h-2.91v2.707c0 .21-.064.382-.188.512a.674.674 0 0 1-.504.193ZM34.8 52.87c-.75 0-1.401-.158-1.95-.476a3.225 3.225 0 0 1-1.277-1.371c-.3-.598-.45-1.298-.45-2.099 0-.796.147-1.49.445-2.081a3.184 3.184 0 0 1 1.276-1.372c.553-.32 1.206-.48 1.956-.48.754 0 1.406.16 1.957.48.55.32.972.778 1.265 1.372.297.59.445 1.285.445 2.081 0 .801-.15 1.5-.45 2.099a3.205 3.205 0 0 1-1.27 1.371c-.551.318-1.2.476-1.947.476Zm0-1.121c.708 0 1.26-.243 1.657-.732.4-.487.6-1.185.6-2.093 0-.907-.2-1.602-.6-2.087-.397-.483-.949-.726-1.657-.726-.715 0-1.27.243-1.667.726-.396.485-.595 1.18-.595 2.087 0 .908.199 1.606.595 2.093.397.489.952.731 1.667.731ZM46.01 51.893a.68.68 0 0 1 .128.379.513.513 0 0 1-.203.416.728.728 0 0 1-.472.16.748.748 0 0 1-.338-.08.719.719 0 0 1-.268-.245l-1.453-2.2c-.147-.234-.303-.397-.466-.49-.165-.097-.378-.145-.638-.145h-1.072v2.445c0 .218-.063.39-.188.518a.687.687 0 0 1-.504.187.701.701 0 0 1-.509-.187c-.129-.128-.193-.3-.193-.518v-6.38c0-.209.06-.373.182-.49.12-.118.287-.176.499-.176h2.734c.875 0 1.541.196 2 .587.456.388.685.949.685 1.681 0 .598-.17 1.088-.509 1.468-.34.382-.82.628-1.442.737.21.05.397.142.558.272.16.128.317.31.472.545l.997 1.516Zm-2.954-3.283c.532 0 .922-.099 1.169-.3.246-.198.37-.506.37-.923 0-.419-.124-.726-.37-.918-.247-.192-.637-.288-1.17-.288h-1.843v2.429h1.844ZM49.917 52.827c-.219 0-.392-.061-.52-.187a.683.683 0 0 1-.193-.507v-5.888h-1.989c-.44 0-.66-.192-.66-.577 0-.387.22-.581.66-.581h5.393c.44 0 .66.194.66.581 0 .385-.22.577-.66.577h-1.989v5.888c0 .21-.064.38-.193.507a.698.698 0 0 1-.51.187ZM13.459 63.75a.55.55 0 0 1 .402.15.5.5 0 0 1 .155.385v2.343c0 .335-.045.572-.134.71-.085.14-.265.251-.536.337-.29.104-.63.184-1.018.24a7.772 7.772 0 0 1-1.115.085c-.794 0-1.484-.155-2.07-.464a3.183 3.183 0 0 1-1.34-1.356c-.31-.594-.466-1.303-.466-2.125 0-.803.155-1.501.466-2.092a3.26 3.26 0 0 1 1.319-1.367c.568-.316 1.24-.475 2.016-.475 1.029 0 1.872.276 2.53.827a.902.902 0 0 1 .188.246.57.57 0 0 1 .064.277c0 .16-.046.297-.134.406a.392.392 0 0 1-.316.16.594.594 0 0 1-.22-.037 1.245 1.245 0 0 1-.23-.123 3.4 3.4 0 0 0-.901-.475 2.955 2.955 0 0 0-.938-.139c-.798 0-1.398.235-1.802.705-.404.47-.605 1.166-.605 2.087 0 1.89.83 2.835 2.492 2.835.496 0 .993-.07 1.49-.208v-1.928h-1.238c-.175 0-.313-.042-.413-.128a.482.482 0 0 1-.144-.373c0-.16.048-.283.144-.369a.601.601 0 0 1 .413-.133h1.94ZM21.72 67.023a.68.68 0 0 1 .13.38.514.514 0 0 1-.205.416.729.729 0 0 1-.471.16.748.748 0 0 1-.338-.08.718.718 0 0 1-.268-.246l-1.453-2.199c-.147-.235-.303-.398-.466-.491-.165-.096-.378-.144-.638-.144h-1.072v2.445c0 .217-.063.39-.188.517a.686.686 0 0 1-.504.187.701.701 0 0 1-.51-.187c-.128-.128-.192-.3-.192-.517v-6.38c0-.209.06-.373.182-.49.12-.118.287-.177.499-.177h2.734c.875 0 1.541.196 2 .587.456.389.685.95.685 1.682 0 .598-.17 1.088-.509 1.468-.34.382-.82.627-1.442.737.21.05.397.141.558.272.16.128.317.31.471.544l.998 1.516Zm-2.953-3.282c.532 0 .922-.1 1.168-.3.247-.198.37-.507.37-.923 0-.42-.123-.726-.37-.918-.246-.192-.636-.288-1.168-.288h-1.844v2.428h1.844ZM26.533 68c-.75 0-1.402-.157-1.951-.475a3.225 3.225 0 0 1-1.276-1.372c-.3-.598-.45-1.297-.45-2.098 0-.797.147-1.49.444-2.082a3.184 3.184 0 0 1 1.276-1.372c.554-.32 1.206-.48 1.957-.48.753 0 1.406.16 1.957.48.55.32.971.778 1.265 1.372.296.592.445 1.285.445 2.082 0 .801-.15 1.5-.45 2.098a3.205 3.205 0 0 1-1.271 1.372c-.55.318-1.2.475-1.946.475Zm0-1.12c.708 0 1.26-.244 1.656-.732.4-.487.6-1.185.6-2.093 0-.907-.2-1.603-.6-2.087-.396-.483-.948-.726-1.656-.726-.716 0-1.27.243-1.667.726-.397.484-.595 1.18-.595 2.087 0 .908.198 1.606.595 2.093.396.488.951.731 1.667.731ZM34.752 68c-1.06 0-1.86-.273-2.407-.817-.547-.545-.82-1.34-.82-2.386v-3.935c0-.21.06-.379.182-.507.124-.128.294-.192.509-.192.21 0 .377.064.498.192a.698.698 0 0 1 .188.507v4.01c0 .661.157 1.162.472 1.5.313.338.773.507 1.378.507.6 0 1.056-.171 1.367-.513.313-.342.471-.84.471-1.495v-4.009c0-.21.062-.379.188-.507a.67.67 0 0 1 .504-.192c.21 0 .378.064.504.192a.698.698 0 0 1 .187.507v3.935c0 1.04-.276 1.833-.825 2.38-.547.549-1.346.823-2.396.823ZM40.236 67.968a.701.701 0 0 1-.51-.187c-.129-.128-.193-.3-.193-.517v-6.38c0-.209.06-.373.182-.49.121-.118.287-.177.499-.177h2.691c.826 0 1.466.207 1.925.62.46.41.691.984.691 1.724 0 .744-.23 1.322-.691 1.735-.459.413-1.1.619-1.925.619h-1.957v2.349c0 .217-.064.39-.193.517-.128.125-.302.187-.52.187Zm2.492-4.132c.972 0 1.458-.421 1.458-1.265 0-.84-.486-1.26-1.458-1.26h-1.78v2.526h1.78Z"/></svg>