<svg aria-hidden="true" style="position: absolute; width: 0; height: 0; overflow: hidden;" version="1.1" xmlns="http://www.w3.org/2000/svg" xmlns:xlink="http://www.w3.org/1999/xlink">
<defs>
<symbol id="icon-facebook" viewBox="0 0 32 32">
<path d="M17.54 26.666v-10.668h2.761l0.366-3.676h-3.128l0.006-1.84c0-0.958 0.086-1.472 1.376-1.472h1.726v-3.678h-2.762c-3.317 0-4.484 1.783-4.484 4.782v2.207h-2.068v3.676h2.068v10.667h4.138z"></path>
</symbol>
<symbol id="icon-instagram" viewBox="0 0 32 32">
<path d="M16 6.666c-2.535 0-2.853 0.011-3.848 0.056-0.994 0.046-1.672 0.204-2.266 0.434-0.647 0.247-1.198 0.614-1.652 1.076l-0.001 0.001c-0.463 0.455-0.829 1.006-1.066 1.621l-0.011 0.031c-0.23 0.594-0.388 1.272-0.434 2.266s-0.056 1.312-0.056 3.847c0 2.536 0.010 2.852 0.056 3.848 0.046 0.994 0.203 1.672 0.434 2.266 0.247 0.647 0.613 1.199 1.075 1.653l0.001 0.001c0.455 0.463 1.006 0.829 1.621 1.066l0.031 0.011c0.594 0.23 1.272 0.388 2.266 0.434s1.313 0.056 3.848 0.056c2.534 0 2.852-0.011 3.848-0.056 0.994-0.046 1.672-0.204 2.266-0.434 0.647-0.247 1.199-0.614 1.653-1.076l0.001-0.001c0.463-0.455 0.829-1.006 1.065-1.621l0.011-0.031c0.23-0.593 0.389-1.272 0.434-2.266 0.046-0.996 0.056-1.313 0.056-3.848s-0.010-2.852-0.056-3.848c-0.045-0.994-0.203-1.672-0.434-2.266-0.247-0.647-0.613-1.199-1.075-1.653l-0.001-0.001c-0.455-0.463-1.006-0.829-1.622-1.066l-0.031-0.011c-0.594-0.23-1.273-0.388-2.266-0.434-0.995-0.045-1.312-0.056-3.848-0.056zM16 8.349c2.492 0 2.787 0.009 3.772 0.054 0.91 0.042 1.403 0.194 1.733 0.322 0.435 0.169 0.746 0.372 1.073 0.698 0.327 0.327 0.53 0.638 0.698 1.074 0.128 0.33 0.28 0.823 0.322 1.733 0.045 0.984 0.054 1.28 0.054 3.772s-0.010 2.788-0.054 3.772c-0.042 0.91-0.192 1.404-0.322 1.733-0.158 0.421-0.395 0.78-0.697 1.073l-0.001 0.001c-0.294 0.302-0.652 0.54-1.053 0.691l-0.020 0.007c-0.33 0.128-0.824 0.28-1.733 0.322-0.984 0.045-1.28 0.054-3.772 0.054s-2.788-0.009-3.772-0.054c-0.91-0.042-1.404-0.193-1.733-0.322-0.421-0.158-0.78-0.395-1.073-0.697l-0.001-0.001c-0.302-0.294-0.54-0.653-0.691-1.054l-0.007-0.020c-0.128-0.329-0.28-0.823-0.322-1.733-0.045-0.984-0.054-1.28-0.054-3.772s0.010-2.787 0.054-3.772c0.042-0.91 0.193-1.404 0.322-1.733 0.168-0.435 0.372-0.746 0.698-1.074 0.294-0.302 0.653-0.539 1.054-0.69l0.020-0.007c0.329-0.128 0.823-0.28 1.733-0.322 0.984-0.045 1.28-0.054 3.772-0.054z"></path>
<path d="M15.99 19.006c-0.397 0-0.79-0.079-1.157-0.234-0.382-0.163-0.708-0.388-0.98-0.665l-0-0c-0.28-0.286-0.503-0.624-0.655-0.996-0.146-0.348-0.23-0.752-0.23-1.176s0.085-0.828 0.238-1.196l-0.008 0.021c0.152-0.373 0.375-0.711 0.656-0.996s0.614-0.512 0.98-0.666c0.367-0.155 0.76-0.234 1.157-0.234 0.802 0 1.57 0.324 2.138 0.9 0.547 0.558 0.885 1.323 0.885 2.167 0 0.001 0 0.003 0 0.004v-0c0 0.002 0 0.003 0 0.005 0 0.844-0.338 1.609-0.885 2.167l0-0c-0.544 0.554-1.3 0.898-2.137 0.899h-0zM15.99 11.204c-1.289 0.002-2.455 0.532-3.291 1.385l-0.001 0.001c-0.843 0.86-1.364 2.039-1.364 3.34 0 0.002 0 0.004 0 0.006v-0c0 1.255 0.49 2.458 1.364 3.346 0.837 0.854 2.003 1.384 3.292 1.386h0c1.29-0.002 2.455-0.532 3.292-1.385l0.001-0.001c0.843-0.86 1.363-2.038 1.363-3.339 0-0.002 0-0.005 0-0.007v0c0-0.002 0-0.004 0-0.006 0-1.3-0.52-2.479-1.364-3.34l0.001 0.001c-0.838-0.854-2.003-1.384-3.292-1.386h-0zM22 11.118c0 0.296-0.116 0.581-0.322 0.791s-0.486 0.327-0.778 0.327c-0.292 0-0.572-0.118-0.778-0.328-0.2-0.203-0.323-0.482-0.323-0.79s0.123-0.587 0.323-0.791l-0 0c0.206-0.21 0.486-0.328 0.778-0.328s0.571 0.118 0.778 0.328c0.206 0.21 0.322 0.494 0.322 0.79z"></path>
</symbol>
<symbol id="icon_whatsapp" viewBox="0 0 32 32">
<path d="M16.528 24.902h-0.004c-1.592 0-3.158-0.4-4.547-1.158l-5.043 1.322 1.35-4.93c-0.798-1.361-1.27-2.997-1.27-4.744 0-0.005 0-0.009 0-0.014v0.001c0.002-5.246 4.27-9.514 9.514-9.514 0.007-0 0.016-0 0.025-0 2.621 0 4.993 1.067 6.705 2.79l0 0.001c1.72 1.713 2.784 4.082 2.784 6.701 0 0.011-0 0.021-0 0.032v-0.002c-0.002 5.244-4.268 9.512-9.514 9.514zM12.211 22.022l0.288 0.171c1.151 0.693 2.54 1.102 4.024 1.102 0 0 0.001 0 0.002 0h0.003c4.358 0 7.906-3.548 7.907-7.908 0-0.007 0-0.016 0-0.025 0-2.176-0.884-4.146-2.313-5.569l-0-0c-1.423-1.433-3.394-2.319-5.572-2.319-0.007 0-0.013 0-0.020 0h0.001c-4.362 0-7.909 3.547-7.91 7.907-0.001 1.494 0.417 2.95 1.208 4.208l0.189 0.299-0.799 2.918 2.994-0.785zM20.995 17.436c0.166 0.080 0.278 0.134 0.326 0.214 0.059 0.098 0.059 0.575-0.138 1.13s-1.148 1.062-1.605 1.13c-0.41 0.061-0.928 0.086-1.498-0.094-0.345-0.11-0.788-0.256-1.355-0.501-2.228-0.962-3.734-3.122-4.019-3.53l-0.042-0.059-0.002-0.002c-0.126-0.168-0.969-1.293-0.969-2.457 0-1.095 0.538-1.669 0.785-1.933l0.047-0.050c0.218-0.238 0.475-0.298 0.634-0.298s0.317 0.002 0.456 0.008c0.016 0.002 0.034 0.002 0.053 0.002 0.138-0.002 0.312-0.002 0.482 0.407l0.262 0.637c0.205 0.498 0.431 1.048 0.47 1.128 0.060 0.119 0.099 0.258 0.020 0.416l-0.034 0.068c-0.059 0.122-0.103 0.211-0.204 0.33-0.040 0.046-0.081 0.096-0.122 0.146-0.082 0.1-0.164 0.2-0.235 0.27-0.119 0.118-0.242 0.248-0.104 0.486s0.616 1.016 1.322 1.646c0.499 0.451 1.079 0.825 1.714 1.094l0.040 0.015c0.066 0.028 0.118 0.051 0.158 0.070 0.238 0.119 0.376 0.099 0.515-0.059s0.594-0.694 0.752-0.933c0.158-0.238 0.318-0.198 0.535-0.118s1.386 0.654 1.624 0.773l0.13 0.064z"></path>
</symbol>
<symbol id="icon-logo" viewBox="0 0 25 32">
<path fill="#4d1299" style="fill: var(--color1, #4d1299)" d="M19.648 17.652v-9.542l-7.314-5.727-7.314 5.727v9.542h14.628zM21.737 18.688c-0 0.143-0.029 0.28-0.082 0.403l0.003-0.007c-0.135 0.318-0.415 0.552-0.755 0.619l-0.007 0.001c-0.067 0.014-0.136 0.021-0.203 0.021h-16.718c-0.001 0-0.003 0-0.004 0-0.215 0-0.414-0.065-0.579-0.177l0.004 0.002c-0.281-0.188-0.463-0.504-0.464-0.862v-11.082c0-0 0-0 0-0.001 0-0.329 0.154-0.623 0.394-0.812l0.002-0.002 8.359-6.543c0.176-0.14 0.401-0.224 0.646-0.224 0.001 0 0.002 0 0.003 0h-0c0.001 0 0.002 0 0.003 0 0.244 0 0.469 0.084 0.647 0.225l-0.002-0.002 8.36 6.544c0.126 0.098 0.224 0.219 0.293 0.361s0.104 0.295 0.104 0.453v11.081zM7.111 10.393h2.089c0 0 0 0.001 0 0.002 0 0.322 0.049 0.632 0.141 0.923l-0.006-0.022c0.097 0.315 0.231 0.589 0.4 0.836l-0.007-0.011c0.176 0.259 0.38 0.482 0.612 0.672l0.005 0.004c0.304 0.25 0.664 0.446 1.056 0.566l0.022 0.006c0.271 0.085 0.582 0.134 0.905 0.134 0.002 0 0.004 0 0.005 0h-0c0.001 0 0.002 0 0.004 0 0.323 0 0.635-0.049 0.929-0.14l-0.022 0.006c0.316-0.096 0.592-0.229 0.842-0.398l-0.011 0.007c0.178-0.118 0.334-0.246 0.475-0.387v0c0.142-0.14 0.271-0.294 0.383-0.46l0.007-0.011c0.106-0.155 0.203-0.332 0.282-0.518l0.008-0.020c0.072-0.166 0.134-0.361 0.175-0.564l0.003-0.020c0.037-0.182 0.059-0.392 0.060-0.606v-0.001h2.090c-0.003 1.074-0.331 2.071-0.892 2.898l0.012-0.018c-0.483 0.709-1.115 1.28-1.854 1.679l-0.028 0.014c-0.269 0.146-0.582 0.279-0.909 0.379l-0.037 0.010c-0.454 0.141-0.976 0.223-1.516 0.223h-0c-0.541-0.001-1.063-0.082-1.554-0.233l0.038 0.010c-0.527-0.162-0.987-0.383-1.404-0.663l0.019 0.012c-0.297-0.197-0.556-0.41-0.792-0.645l0 0c-0.355-0.351-0.659-0.754-0.9-1.195l-0.013-0.027c-0.388-0.706-0.617-1.546-0.617-2.44 0-0.001 0-0.002 0-0.004v0z"></path>
<path fill="#d854a5" style="fill: var(--color2, #d854a5)" d="M8.37 6.566h2.758v2.746h-2.758v-2.747z"></path>
<path fill="#4d1299" style="fill: var(--color1, #4d1299)" d="M1.736 24.88c-0.35 0-0.656-0.074-0.918-0.224-0.262-0.152-0.47-0.372-0.602-0.636l-0.004-0.009c-0.141-0.281-0.212-0.611-0.212-0.988 0-0.375 0.071-0.701 0.212-0.979 0.141-0.28 0.344-0.495 0.606-0.646s0.568-0.226 0.918-0.226c0.227 0 0.44 0.033 0.638 0.1 0.2 0.067 0.377 0.163 0.533 0.289 0.039 0.029 0.071 0.066 0.092 0.109l0.001 0.002c0.016 0.038 0.026 0.082 0.026 0.128 0 0.003-0 0.005-0 0.008v-0c0 0.075-0.022 0.139-0.063 0.191-0.034 0.046-0.088 0.075-0.149 0.075-0 0-0 0-0.001 0h0c-0.080-0.002-0.153-0.028-0.213-0.071l0.001 0.001c-0.118-0.094-0.254-0.171-0.401-0.225l-0.010-0.003c-0.121-0.041-0.26-0.065-0.405-0.065-0.006 0-0.012 0-0.017 0h0.001c-0.358 0-0.63 0.112-0.812 0.334s-0.275 0.549-0.275 0.979c0 0.436 0.092 0.765 0.275 0.988 0.183 0.221 0.454 0.331 0.812 0.331 0.146 0 0.282-0.021 0.408-0.065s0.268-0.12 0.424-0.226c0.036-0.021 0.070-0.039 0.104-0.053 0.032-0.013 0.070-0.020 0.109-0.020h0c0.061 0 0.116 0.031 0.149 0.078l0 0.001c0.041 0.050 0.063 0.113 0.063 0.188 0 0.001 0 0.003 0 0.005 0 0.048-0.009 0.094-0.026 0.136l0.001-0.002c-0.022 0.044-0.053 0.081-0.092 0.108l-0.001 0.001c-0.151 0.124-0.328 0.223-0.521 0.287l-0.012 0.003c-0.187 0.062-0.401 0.098-0.624 0.098-0.005 0-0.010-0-0.014-0h0.001zM5.196 24.88c-0.353 0-0.66-0.074-0.919-0.224-0.259-0.153-0.465-0.373-0.596-0.636l-0.004-0.009c-0.141-0.281-0.212-0.611-0.212-0.988 0-0.375 0.069-0.701 0.209-0.979 0.134-0.273 0.34-0.494 0.593-0.642l0.007-0.004c0.261-0.151 0.568-0.226 0.921-0.226s0.662 0.075 0.92 0.226 0.457 0.366 0.596 0.646c0.139 0.278 0.209 0.605 0.209 0.979 0 0.377-0.071 0.706-0.212 0.988-0.134 0.272-0.339 0.492-0.591 0.641l-0.007 0.004c-0.259 0.15-0.565 0.224-0.916 0.224zM5.196 24.352c0.333 0 0.593-0.114 0.779-0.344 0.188-0.229 0.282-0.558 0.282-0.985s-0.094-0.754-0.282-0.982c-0.186-0.227-0.447-0.342-0.779-0.342-0.337 0-0.598 0.114-0.784 0.342s-0.28 0.555-0.28 0.982c0 0.427 0.093 0.756 0.28 0.985s0.448 0.344 0.784 0.344zM10.789 21.192c0.005-0 0.010-0 0.015-0 0.085 0 0.162 0.035 0.217 0.091l0 0c0.055 0.059 0.088 0.137 0.088 0.224 0 0.005-0 0.010-0 0.015l0-0.001v3.037c0 0.096-0.028 0.171-0.083 0.226-0.052 0.050-0.123 0.081-0.202 0.081-0.005 0-0.009-0-0.014-0l0.001 0c-0.004 0-0.010 0-0.015 0-0.077 0-0.146-0.031-0.197-0.080l0 0c-0.052-0.056-0.078-0.131-0.078-0.226v-2.116l-0.875 1.653c-0.040 0.075-0.085 0.132-0.134 0.168-0.046 0.033-0.103 0.053-0.164 0.053-0.002 0-0.003 0-0.005-0h0c-0.002 0-0.005 0-0.007 0-0.061 0-0.118-0.019-0.165-0.051l0.001 0.001c-0.056-0.046-0.101-0.103-0.132-0.168l-0.001-0.003-0.88-1.625v2.088c0 0.004 0 0.009 0 0.014 0 0.081-0.031 0.155-0.081 0.21l0-0c-0.050 0.051-0.121 0.083-0.198 0.083-0.005 0-0.010-0-0.014-0l0.001 0c-0.004 0-0.010 0-0.015 0-0.077 0-0.146-0.031-0.197-0.080l0 0c-0.052-0.056-0.078-0.131-0.078-0.226v-3.038c0-0.099 0.028-0.178 0.086-0.239 0.055-0.056 0.131-0.091 0.215-0.091 0.005 0 0.010 0 0.015 0l-0.001-0c0.132 0 0.237 0.074 0.313 0.221l1.145 2.17 1.138-2.17c0.075-0.147 0.176-0.221 0.303-0.221zM12.201 24.865c-0.004 0-0.009 0-0.015 0-0.088 0-0.167-0.035-0.225-0.091l0 0c-0.056-0.059-0.091-0.139-0.091-0.227 0-0.005 0-0.010 0-0.015l-0 0.001v-3.002c0-0.098 0.028-0.176 0.086-0.231s0.135-0.083 0.234-0.083h1.809c0.208 0 0.313 0.089 0.313 0.268 0 0.175-0.105 0.262-0.313 0.262h-1.473v0.985h1.369c0.208 0 0.313 0.089 0.313 0.266 0 0.175-0.104 0.261-0.313 0.261h-1.369v1.274c0 0.099-0.030 0.18-0.088 0.241-0.057 0.056-0.136 0.091-0.223 0.091-0.005 0-0.010-0-0.015-0l0.001 0zM16.376 24.88c-0.353 0-0.659-0.074-0.918-0.224-0.26-0.153-0.466-0.373-0.597-0.636l-0.004-0.009c-0.141-0.281-0.212-0.611-0.212-0.988 0-0.375 0.069-0.701 0.209-0.979 0.134-0.273 0.34-0.494 0.593-0.642l0.007-0.004c0.26-0.151 0.568-0.226 0.92-0.226 0.355 0 0.662 0.075 0.921 0.226s0.457 0.366 0.595 0.646c0.14 0.278 0.209 0.605 0.209 0.979 0 0.377-0.071 0.706-0.212 0.988-0.134 0.272-0.339 0.492-0.591 0.641l-0.007 0.004c-0.259 0.15-0.565 0.224-0.916 0.224zM16.376 24.352c0.333 0 0.593-0.114 0.78-0.344 0.188-0.229 0.282-0.558 0.282-0.985s-0.094-0.754-0.282-0.982c-0.187-0.227-0.447-0.342-0.78-0.342-0.336 0-0.598 0.114-0.784 0.342s-0.28 0.555-0.28 0.982c0 0.427 0.094 0.756 0.28 0.985s0.448 0.344 0.784 0.344zM21.652 24.42c0.036 0.050 0.058 0.111 0.060 0.178v0c0 0.001 0 0.002 0 0.003 0 0.078-0.037 0.148-0.095 0.192l-0.001 0c-0.058 0.047-0.133 0.075-0.214 0.075-0.003 0-0.005-0-0.008-0h0c-0 0-0 0-0.001 0-0.058 0-0.112-0.014-0.16-0.039l0.002 0.001c-0.052-0.028-0.094-0.067-0.125-0.114l-0.001-0.001-0.684-1.035c-0.069-0.11-0.143-0.187-0.219-0.231-0.078-0.046-0.178-0.068-0.3-0.068h-0.504v1.151c0 0.103-0.030 0.184-0.088 0.244-0.058 0.055-0.136 0.088-0.222 0.088-0.005 0-0.011-0-0.016-0l0.001 0c-0.004 0-0.010 0-0.015 0-0.087 0-0.166-0.034-0.225-0.089l0 0c-0.061-0.060-0.091-0.141-0.091-0.244v-3.002c0-0.098 0.028-0.176 0.086-0.231s0.135-0.083 0.235-0.083h1.287c0.412 0 0.725 0.092 0.941 0.276 0.215 0.183 0.322 0.447 0.322 0.791 0 0.281-0.080 0.512-0.24 0.691s-0.386 0.296-0.679 0.347c0.099 0.024 0.187 0.067 0.263 0.128s0.149 0.146 0.222 0.256l0.469 0.713zM20.262 22.875c0.25 0 0.434-0.047 0.55-0.141 0.116-0.093 0.174-0.238 0.174-0.434s-0.058-0.342-0.174-0.432c-0.116-0.090-0.3-0.136-0.551-0.136h-0.867v1.143h0.868zM23.49 24.86c-0.103 0-0.184-0.029-0.245-0.088-0.056-0.058-0.091-0.137-0.091-0.224 0-0.005 0-0.010 0-0.015l-0 0.001v-2.771h-0.936c-0.207 0-0.311-0.090-0.311-0.272s0.104-0.273 0.311-0.273h2.538c0.207 0 0.311 0.091 0.311 0.273s-0.104 0.272-0.311 0.272h-0.936v2.771c0 0.099-0.030 0.179-0.091 0.239-0.059 0.055-0.137 0.088-0.224 0.088-0.006 0-0.011-0-0.017-0l0.001 0zM6.334 30c0.003-0 0.007-0 0.011-0 0.069 0 0.132 0.027 0.178 0.071l-0-0c0.045 0.043 0.073 0.103 0.073 0.171 0 0.004-0 0.007-0 0.011l0-0.001v1.103c0 0.158-0.021 0.269-0.063 0.334-0.040 0.066-0.125 0.118-0.252 0.159-0.136 0.049-0.296 0.087-0.479 0.113-0.157 0.025-0.339 0.039-0.524 0.040h-0.001c-0.374 0-0.698-0.073-0.974-0.218-0.272-0.146-0.488-0.364-0.627-0.63l-0.004-0.008c-0.146-0.28-0.219-0.613-0.219-1 0-0.378 0.073-0.706 0.219-0.984 0.141-0.273 0.354-0.493 0.613-0.639l0.008-0.004c0.267-0.149 0.584-0.224 0.949-0.224 0.484 0 0.881 0.13 1.191 0.389 0.035 0.033 0.065 0.071 0.087 0.113l0.001 0.002c0.019 0.036 0.030 0.078 0.030 0.124 0 0.002-0 0.005-0 0.007v-0c0 0.075-0.022 0.14-0.063 0.191-0.034 0.046-0.088 0.075-0.149 0.075 0 0 0 0 0 0v0c-0.002 0-0.004 0-0.006 0-0.035 0-0.068-0.006-0.099-0.018l0.002 0.001c-0.041-0.017-0.077-0.036-0.11-0.059l0.002 0.001c-0.122-0.091-0.262-0.166-0.413-0.22l-0.011-0.003c-0.126-0.042-0.271-0.066-0.422-0.066-0.007 0-0.014 0-0.021 0h0.001c-0.376 0-0.658 0.111-0.848 0.332s-0.285 0.549-0.285 0.982c0 0.889 0.391 1.334 1.173 1.334 0.233 0 0.467-0.033 0.701-0.098v-0.907h-0.583c-0.082 0-0.147-0.020-0.194-0.060-0.042-0.041-0.068-0.099-0.068-0.162 0-0.005 0-0.009 0-0.014l-0 0.001c0-0.075 0.023-0.133 0.068-0.174 0.048-0.039 0.11-0.063 0.178-0.063 0.006 0 0.011 0 0.017 0l-0.001-0h0.913zM10.221 31.54c0.036 0.050 0.059 0.111 0.061 0.178v0c0 0.001 0 0.002 0 0.002 0 0.079-0.038 0.149-0.096 0.193l-0.001 0c-0.058 0.047-0.133 0.075-0.215 0.075-0.002 0-0.005-0-0.007-0h0c-0 0-0 0-0.001 0-0.058 0-0.112-0.014-0.16-0.039l0.002 0.001c-0.052-0.028-0.094-0.067-0.125-0.114l-0.001-0.001-0.684-1.035c-0.069-0.111-0.143-0.187-0.219-0.231-0.078-0.045-0.178-0.068-0.3-0.068h-0.504v1.151c0 0.102-0.030 0.184-0.088 0.243-0.058 0.055-0.136 0.088-0.222 0.088-0.005 0-0.011-0-0.016-0l0.001 0c-0.005 0-0.010 0-0.015 0-0.087 0-0.166-0.034-0.225-0.089l0 0c-0.060-0.060-0.090-0.141-0.090-0.243v-3.002c0-0.098 0.028-0.176 0.086-0.231s0.135-0.083 0.235-0.083h1.287c0.412 0 0.725 0.092 0.941 0.276 0.215 0.183 0.322 0.447 0.322 0.792 0 0.281-0.080 0.512-0.24 0.691s-0.386 0.295-0.679 0.347c0.099 0.024 0.187 0.066 0.263 0.128 0.075 0.060 0.149 0.146 0.222 0.256l0.47 0.713zM8.832 29.996c0.25 0 0.434-0.047 0.55-0.141s0.174-0.239 0.174-0.434c0-0.198-0.058-0.342-0.174-0.432s-0.299-0.136-0.55-0.136h-0.868v1.143h0.868zM12.486 32c-0.353 0-0.66-0.074-0.918-0.224-0.26-0.153-0.465-0.373-0.597-0.637l-0.004-0.009c-0.141-0.281-0.212-0.61-0.212-0.987 0-0.375 0.069-0.701 0.209-0.98 0.134-0.273 0.34-0.494 0.593-0.642l0.007-0.004c0.261-0.151 0.568-0.226 0.921-0.226s0.662 0.075 0.921 0.226c0.259 0.151 0.457 0.366 0.595 0.646s0.209 0.605 0.209 0.98c0 0.377-0.071 0.706-0.212 0.987-0.134 0.273-0.339 0.493-0.591 0.642l-0.007 0.004c-0.259 0.15-0.565 0.224-0.916 0.224zM12.486 31.473c0.333 0 0.593-0.115 0.779-0.344 0.188-0.229 0.282-0.558 0.282-0.985s-0.094-0.754-0.282-0.982c-0.186-0.227-0.446-0.342-0.779-0.342-0.337 0-0.598 0.114-0.784 0.342s-0.28 0.555-0.28 0.982c0 0.427 0.093 0.756 0.28 0.985s0.448 0.344 0.784 0.344zM16.354 32c-0.499 0-0.875-0.128-1.133-0.384s-0.386-0.631-0.386-1.123v-1.852c0-0.099 0.028-0.178 0.086-0.239s0.138-0.090 0.24-0.090c0.099 0 0.177 0.030 0.234 0.090 0.055 0.059 0.089 0.138 0.089 0.225 0 0.005-0 0.010-0 0.015l0-0.001v1.887c0 0.311 0.074 0.547 0.222 0.706s0.364 0.239 0.648 0.239c0.282 0 0.497-0.080 0.643-0.241s0.222-0.395 0.222-0.704v-1.887c0-0.099 0.029-0.178 0.088-0.239 0.057-0.056 0.135-0.091 0.221-0.091 0.006 0 0.011 0 0.017 0l-0.001-0c0.099 0 0.178 0.030 0.237 0.090 0.055 0.059 0.088 0.137 0.088 0.224 0 0.005-0 0.010-0 0.015l0-0.001v1.852c0 0.489-0.13 0.863-0.388 1.12s-0.633 0.387-1.128 0.387zM18.935 31.985c-0.005 0-0.010 0-0.015 0-0.087 0-0.166-0.034-0.225-0.089l0 0c-0.061-0.060-0.091-0.141-0.091-0.243v-3.002c0-0.098 0.028-0.176 0.086-0.231s0.135-0.083 0.235-0.083h1.266c0.389 0 0.69 0.097 0.906 0.292 0.216 0.193 0.325 0.463 0.325 0.811 0 0.35-0.108 0.622-0.325 0.816s-0.518 0.291-0.906 0.291h-0.921v1.105c0 0.102-0.030 0.184-0.091 0.243s-0.142 0.088-0.245 0.088zM20.107 30.040c0.457 0 0.686-0.198 0.686-0.595 0-0.395-0.229-0.593-0.686-0.593h-0.838v1.189h0.838z"></path>
</symbol>
<symbol id="icon-messenger" viewBox="0 0 32 32">
<path d="M9.905 22.161v3.415l3.193-1.816c0.89 0.257 1.836 0.395 2.817 0.395 5.255 0 9.515-3.975 9.515-8.878s-4.26-8.878-9.515-8.878c-5.255 0-9.515 3.975-9.515 8.878 0 2.776 1.366 5.255 3.505 6.883z"></path>
<path fill="#ebe7f3" style="fill: var(--color1, #ebe7f3)" d="M14.899 12.846l-5.131 5.433 4.67-2.562 2.44 2.562 5.102-5.433-4.618 2.517-2.463-2.517z"></path>
</symbol>
</defs>
</svg>
